<?xml version="1.0" encoding="UTF-8" standalone="no"?>
<!-- Created with Inkscape (http://www.inkscape.org/) -->

<svg
   width="128"
   height="128"
   viewBox="0 0 33.866666 33.866666"
   version="1.1"
   id="svg13"
   inkscape:version="1.1.2 (0a00cf5339, 2022-02-04)"
   sodipodi:docname="Icon.svg"
   xmlns:inkscape="http://www.inkscape.org/namespaces/inkscape"
   xmlns:sodipodi="http://sodipodi.sourceforge.net/DTD/sodipodi-0.dtd"
   xmlns="http://www.w3.org/2000/svg"
   xmlns:svg="http://www.w3.org/2000/svg">
  <sodipodi:namedview
     id="namedview15"
     pagecolor="#ffffff"
     bordercolor="#666666"
     borderopacity="1.0"
     inkscape:pageshadow="2"
     inkscape:pageopacity="0.0"
     inkscape:pagecheckerboard="0"
     inkscape:document-units="px"
     showgrid="false"
     inkscape:zoom="0.98520767"
     inkscape:cx="61.408373"
     inkscape:cy="121.29422"
     inkscape:window-width="1920"
     inkscape:window-height="1016"
     inkscape:window-x="0"
     inkscape:window-y="0"
     inkscape:window-maximized="1"
     inkscape:current-layer="layer1"
     units="px" />
  <defs
     id="defs10" />
  <g
     inkscape:label="Calque 1"
     inkscape:groupmode="layer"
     id="layer1">
    <rect
       style="fill:#ff7f2a;stroke-width:0.0446794"
       id="rect82"
       width="33.866665"
       height="33.866665"
       x="0"
       y="0" />
    <g
       id="g23"
       transform="matrix(0.04045001,0,0,0.04045001,1.492336,12.150947)">
      <path
         fill-rule="evenodd"
         clip-rule="evenodd"
         d="M 71.1301,1.375 C 39.9361,6.503 16.6551,26.618 10.2211,54 c -1.95499,8.318 -2.02099,30.148 -0.119,39.122 2.759,13.017 10.98,25.507 21.93,33.321 11.796,8.417 22.598,12.633 61.543,24.017 20.7749,6.073 31.7789,12.161 34.7249,19.211 1.758,4.208 1.751,13.488 -0.013,17.611 -5.374,12.561 -25.445,17.369 -50.1229,12.007 -12.979,-2.82 -25.856,-9.339 -40.979,-20.745 l -8.318,-6.273 -14.173,17.971 C 6.89811,200.125 0.296112,208.796 0.0221121,209.51 -0.641888,211.24 13.7881,222.814 24.4881,229.134 c 24.432,14.431 54.19,21.24 82.2089,18.809 47.794,-4.146 74.826,-33.52 72.648,-78.943 -1.066,-22.233 -8.571,-36.734 -25.063,-48.424 C 142.358,112.123 131.717,107.762 100.189,98.408 75.4921,91.08 67.2561,87.577 62.8071,82.51 c -8.311,-9.466 -5.657,-25.012 5.323,-31.171 9.475,-5.315 25.416,-5.436 40.7569,-0.31 10.302,3.442 17.133,6.812 29.049,14.329 l 8.771,5.534 2.337,-3.696 c 1.285,-2.033 7.138,-11.046 13.007,-20.029 l 10.672,-16.333 -2.689,-2.167 C 158.904,19.696 140.944,9.966 128.464,6.147 111.37,0.914999 86.5121,-1.154 71.1301,1.375 Z M 303.164,1.061 C 260.993,6.81 226.948,33.557 210.323,74 c -13,31.627 -13.036,70.775 -0.094,102.87 15.666,38.851 48.955,65.497 89.642,71.752 14.409,2.216 35.808,1.351 48.793,-1.971 10.383,-2.657 17.944,-5.734 25.201,-10.257 l 4.7,-2.931 -13.124,-20.163 -13.125,-20.163 -3.619,1.846 c -10.059,5.132 -29.49,7.296 -41.842,4.66 -12.592,-2.687 -21.478,-7.684 -31.347,-17.626 -7.19,-7.244 -9.427,-10.311 -13.217,-18.119 -6.536,-13.463 -8.969,-24.372 -8.898,-39.898 0.069,-15.159 2.196,-24.324 8.725,-37.589 8.032,-16.32 22.096,-28.931 37.838,-33.93 14.519,-4.611 28.231,-4.25 43.185,1.138 3.862,1.392 7.698,2.734 8.523,2.983 1.05,0.316 5.339,-5.444 14.3,-19.207 l 12.801,-19.659 -2.301,-2.513 C 372.907,11.337 358.473,5.014 348.3,2.886 337.534,0.634 313.442,-0.34 303.164,1.061 Z M 411.664,125 v 125 h 13.684 c 22.11,0 29.901,-3.477 36.248,-16.179 2.624,-5.252 3.068,-7.251 3.068,-13.814 0,-4.22 -0.526,-10.294 -1.169,-13.496 -1.149,-5.719 -1.122,-5.864 1.509,-8.127 2.466,-2.122 4.66,-6.12 4.66,-8.495 0,-0.539 -1.152,-2.132 -2.561,-3.541 -1.408,-1.408 -2.42,-2.644 -2.25,-2.746 10.509,-6.277 11.2,-7.941 7.312,-17.599 -4.417,-10.972 -2.617,-15.136 9.284,-21.477 9.445,-5.033 12.7,-13.76 7.984,-21.408 C 488.207,121.128 482.066,112.525 475.787,104 459.211,81.494 458.269,78.675 463.876,68.391 468.918,59.142 468.521,53.63 461.292,32.5 455.594,15.848 452.833,9.782 447.978,3.25 L 445.562,0 h -16.949 -16.949 z m 109,0 v 125 h 24.994 24.994 l 0.256,-81.949 0.256,-81.95 31.436,50.471 c 17.29,27.759 31.915,50.317 32.5,50.13 0.585,-0.188 15.239,-23.088 32.564,-50.889 l 31.5,-50.547 0.256,82.367 0.256,82.367 h 24.994 24.994 V 125 0 L 722.414,0.00500011 695.164,0.00899982 665.237,50.975 C 640.021,93.917 635.132,101.669 634.18,100.22 633.558,99.274 620.046,76.338 604.152,49.25 L 575.256,0 H 547.96 520.664 Z"
         fill="#000000"
         id="path2" />
    </g>
  </g>
</svg>
